<?xml version="1.0" encoding="utf-8"?>
<!-- Generator: Adobe Illustrator 25.2.3, SVG Export Plug-In . SVG Version: 6.00 Build 0)  -->
<svg version="1.1" xmlns="http://www.w3.org/2000/svg" xmlns:xlink="http://www.w3.org/1999/xlink" x="0px" y="0px"
	 viewBox="0 0 162 108" style="enable-background:new 0 0 162 108;" xml:space="preserve">
<style type="text/css">
	.st0{fill:#231F20;}
	.st1{fill:#CE0E2D;}
</style>
<g id="Back">
</g>
<g id="Photos">
</g>
<g id="graphics">
</g>
<g id="decoration">
</g>
<g id="Color">
</g>
<g id="Window_color">
</g>
<g id="night">
</g>
<g id="logo">
</g>
<g id="footer">
</g>
<g id="letters">
	<g>
		<g>
			<g>
				<g>
					<path class="st0" d="M13.4,77.1h0.5l2,4.5h-0.5l-0.5-1.2h-2.4l-0.5,1.2h-0.5L13.4,77.1z M14.6,80l-1-2.3l-1,2.3H14.6z"/>
					<path class="st0" d="M16.8,77.2h1.9c0.6,0,1,0.2,1.3,0.4c0.2,0.2,0.3,0.5,0.3,0.9v0c0,0.7-0.5,1.2-1.2,1.3l1.4,1.8h-0.6
						l-1.3-1.7h-1.3v1.7h-0.5V77.2z M18.7,79.5c0.7,0,1.2-0.3,1.2-0.9v0c0-0.6-0.4-0.9-1.1-0.9h-1.4v1.8H18.7z"/>
					<path class="st0" d="M21.4,77.2h0.5v4h2.5v0.5h-3V77.2z"/>
					<path class="st0" d="M25.4,77.2h0.5v4.5h-0.5V77.2z"/>
					<path class="st0" d="M27.2,77.2h0.5l2.8,3.6v-3.6H31v4.5h-0.4L27.7,78v3.7h-0.5V77.2z"/>
					<path class="st0" d="M32.1,79.4L32.1,79.4c0-1.2,0.9-2.3,2.3-2.3c0.8,0,1.2,0.2,1.7,0.6l-0.3,0.4c-0.3-0.3-0.7-0.5-1.4-0.5
						c-1,0-1.7,0.8-1.7,1.8v0c0,1.1,0.7,1.9,1.8,1.9c0.5,0,1-0.2,1.3-0.4v-1.1h-1.4v-0.5h1.9v1.8c-0.4,0.4-1,0.7-1.8,0.7
						C33,81.7,32.1,80.7,32.1,79.4z"/>
					<path class="st0" d="M38.4,77.6h-1.5v-0.5h3.5v0.5h-1.5v4h-0.5V77.6z"/>
					<path class="st0" d="M40.9,79.4L40.9,79.4c0-1.3,0.9-2.3,2.3-2.3c1.4,0,2.3,1.1,2.3,2.3v0c0,1.2-0.9,2.3-2.3,2.3
						S40.9,80.7,40.9,79.4z M44.9,79.4L44.9,79.4c0-1-0.7-1.9-1.8-1.9s-1.8,0.8-1.8,1.8v0c0,1,0.7,1.9,1.8,1.9S44.9,80.5,44.9,79.4z
						"/>
					<path class="st0" d="M46.5,77.2H47l2.8,3.6v-3.6h0.5v4.5h-0.4L47,78v3.7h-0.5V77.2z"/>
					<path class="st0" d="M53.5,77.2H54v2h2.6v-2h0.5v4.5h-0.5v-2H54v2h-0.5V77.2z"/>
					<path class="st0" d="M58.4,77.2h3.2v0.5h-2.7v1.5h2.4v0.5h-2.4v1.6h2.8v0.5h-3.3V77.2z"/>
					<path class="st0" d="M62.7,77.2h0.5v4.5h-0.5V77.2z"/>
					<path class="st0" d="M64.3,79.4L64.3,79.4c0-1.2,0.9-2.3,2.3-2.3c0.8,0,1.2,0.2,1.7,0.6l-0.3,0.4c-0.3-0.3-0.7-0.5-1.4-0.5
						c-1,0-1.7,0.8-1.7,1.8v0c0,1.1,0.7,1.9,1.8,1.9c0.5,0,1-0.2,1.3-0.4v-1.1h-1.4v-0.5h1.9v1.8c-0.4,0.4-1,0.7-1.8,0.7
						C65.2,81.7,64.3,80.7,64.3,79.4z"/>
					<path class="st0" d="M69.6,77.2h0.5v2h2.6v-2h0.5v4.5h-0.5v-2h-2.6v2h-0.5V77.2z"/>
					<path class="st0" d="M75.6,77.6h-1.5v-0.5h3.5v0.5h-1.5v4h-0.5V77.6z"/>
					<path class="st0" d="M78.2,81l0.3-0.4c0.5,0.4,0.9,0.6,1.5,0.6c0.6,0,1-0.3,1-0.8v0c0-0.4-0.2-0.7-1.2-0.9
						c-1-0.2-1.5-0.6-1.5-1.3v0c0-0.7,0.6-1.2,1.5-1.2c0.7,0,1.1,0.2,1.6,0.6l-0.3,0.4c-0.4-0.3-0.8-0.5-1.3-0.5c-0.6,0-1,0.3-1,0.7
						v0c0,0.4,0.2,0.7,1.2,0.9c1,0.2,1.5,0.6,1.5,1.3v0c0,0.8-0.6,1.3-1.5,1.3C79.3,81.7,78.7,81.5,78.2,81z"/>
					<path class="st0" d="M84.5,77.2H85l1.6,2.4l1.6-2.4h0.5v4.5h-0.5V78l-1.6,2.4h0L85,78v3.6h-0.5V77.2z"/>
					<path class="st0" d="M90.1,77.2h3.2v0.5h-2.7v1.5H93v0.5h-2.4v1.6h2.8v0.5h-3.3V77.2z"/>
					<path class="st0" d="M94.4,77.2h0.5l1.6,2.4l1.6-2.4h0.5v4.5h-0.5V78l-1.6,2.4h0L94.8,78v3.6h-0.5V77.2z"/>
					<path class="st0" d="M99.7,79.4L99.7,79.4c0-1.3,0.9-2.3,2.3-2.3c1.4,0,2.3,1.1,2.3,2.3v0c0,1.2-0.9,2.3-2.3,2.3
						C100.6,81.7,99.7,80.7,99.7,79.4z M103.8,79.4L103.8,79.4c0-1-0.7-1.9-1.8-1.9c-1,0-1.8,0.8-1.8,1.8v0c0,1,0.7,1.9,1.8,1.9
						C103,81.3,103.8,80.5,103.8,79.4z"/>
					<path class="st0" d="M105.4,77.2h1.9c0.6,0,1,0.2,1.3,0.4c0.2,0.2,0.3,0.5,0.3,0.9v0c0,0.7-0.5,1.2-1.2,1.3l1.4,1.8h-0.6
						l-1.3-1.7h-1.3v1.7h-0.5V77.2z M107.3,79.5c0.7,0,1.2-0.3,1.2-0.9v0c0-0.6-0.4-0.9-1.1-0.9h-1.4v1.8H107.3z"/>
					<path class="st0" d="M110,77.2h0.5v4.5H110V77.2z"/>
					<path class="st0" d="M113.5,77.1h0.5l2,4.5h-0.5l-0.5-1.2h-2.4l-0.5,1.2h-0.5L113.5,77.1z M114.8,80l-1-2.3l-1,2.3H114.8z"/>
					<path class="st0" d="M116.9,77.2h0.5v4h2.5v0.5h-3V77.2z"/>
					<path class="st0" d="M122.8,77.2h0.5v4h2.5v0.5h-3V77.2z"/>
					<path class="st0" d="M126.8,77.2h0.5v4.5h-0.5V77.2z"/>
					<path class="st0" d="M128.6,77.2h1.9c0.5,0,0.9,0.1,1.2,0.4c0.2,0.2,0.3,0.4,0.3,0.7v0c0,0.6-0.4,0.9-0.7,1
						c0.5,0.2,1,0.5,1,1.1v0c0,0.8-0.6,1.2-1.6,1.2h-2V77.2z M131.5,78.4c0-0.4-0.4-0.7-1-0.7h-1.4v1.5h1.3
						C131,79.2,131.5,78.9,131.5,78.4L131.5,78.4z M130.5,79.6h-1.4v1.6h1.5c0.7,0,1.1-0.3,1.1-0.8v0
						C131.7,79.9,131.3,79.6,130.5,79.6z"/>
					<path class="st0" d="M133.2,77.2h1.9c0.6,0,1,0.2,1.3,0.4c0.2,0.2,0.3,0.5,0.3,0.9v0c0,0.7-0.5,1.2-1.2,1.3l1.4,1.8h-0.6
						l-1.3-1.7h-1.3v1.7h-0.5V77.2z M135.1,79.5c0.7,0,1.2-0.3,1.2-0.9v0c0-0.6-0.4-0.9-1.1-0.9h-1.4v1.8H135.1z"/>
					<path class="st0" d="M139.5,77.1h0.5l2,4.5h-0.5l-0.5-1.2h-2.4l-0.5,1.2h-0.5L139.5,77.1z M140.8,80l-1-2.3l-1,2.3H140.8z"/>
					<path class="st0" d="M142.9,77.2h1.9c0.6,0,1,0.2,1.3,0.4c0.2,0.2,0.3,0.5,0.3,0.9v0c0,0.7-0.5,1.2-1.2,1.3l1.4,1.8H146
						l-1.3-1.7h-1.3v1.7h-0.5V77.2z M144.8,79.5c0.7,0,1.2-0.3,1.2-0.9v0c0-0.6-0.4-0.9-1.1-0.9h-1.4v1.8H144.8z"/>
					<path class="st0" d="M148.8,79.9l-1.9-2.7h0.6l1.5,2.2l1.5-2.2h0.6l-1.9,2.7v1.8h-0.5V79.9z"/>
				</g>
			</g>
			<g>
				<g>
					<path class="st0" d="M11.3,86.3h1.1l3.5,5.2l3.5-5.2h1.1v9.6h-1.1v-7.8l-3.5,5.1h-0.1l-3.5-5.1v7.8h-1.1V86.3z"/>
					<path class="st0" d="M31.6,86.3h1l4.4,9.7h-1.2l-1.1-2.5h-5.2l-1.1,2.5h-1.1L31.6,86.3z M34.3,92.4l-2.2-4.9l-2.2,4.9H34.3z"/>
					<path class="st0" d="M43.7,86.3h1.1v5.7l5.5-5.7h1.4l-4.1,4.2l4.3,5.4h-1.4l-3.7-4.6l-2,2.1v2.6h-1.1V86.3z"/>
					<path class="st0" d="M58.3,86.3h6.9v1h-5.9v3.3h5.2v1h-5.2v3.4h5.9v1h-7V86.3z"/>
					<path class="st0" d="M72.3,86.3h4.1c1.2,0,2.1,0.4,2.7,1c0.5,0.5,0.7,1.1,0.7,1.9v0c0,1.6-1.1,2.5-2.6,2.8l2.9,3.9h-1.3
						l-2.8-3.7h-2.7v3.7h-1.1V86.3z M76.3,91.2c1.4,0,2.5-0.7,2.5-2v0c0-1.2-0.9-1.9-2.5-1.9h-3v3.9H76.3z"/>
					<path class="st0" d="M87,86.3h3.6c2.2,0,3.6,1.2,3.6,3v0c0,2.1-1.7,3.1-3.8,3.1h-2.3v3.4H87V86.3z M90.4,91.5
						c1.6,0,2.6-0.8,2.6-2.1v0c0-1.4-1-2.1-2.6-2.1h-2.4v4.2H90.4z"/>
					<path class="st0" d="M100.9,86.3h1.1v8.6h5.4v1h-6.5V86.3z"/>
					<path class="st0" d="M117.7,86.3h1l4.4,9.7h-1.2l-1.1-2.5h-5.2l-1.1,2.5h-1.1L117.7,86.3z M120.4,92.4l-2.2-4.9l-2.2,4.9H120.4
						z"/>
					<path class="st0" d="M128.8,91.2L128.8,91.2c0-2.7,2-5,4.9-5c1.7,0,2.8,0.6,3.7,1.5l-0.7,0.8c-0.8-0.8-1.7-1.3-3-1.3
						c-2.1,0-3.7,1.7-3.7,3.9v0c0,2.2,1.6,4,3.7,4c1.3,0,2.2-0.5,3.1-1.4l0.7,0.7c-1,1-2.1,1.7-3.8,1.7
						C130.8,96.1,128.8,93.9,128.8,91.2z"/>
					<path class="st0" d="M144.2,86.3h6.9v1h-5.9v3.3h5.2v1h-5.2v3.4h5.9v1h-7V86.3z"/>
				</g>
			</g>
		</g>
		<g>
			<polygon class="st1" points="48.6,11.9 48.6,67.9 58,67.9 58,21.2 104.6,21.2 104.6,67.9 113.9,67.9 113.9,11.9 			"/>
			<rect x="67.3" y="30.6" class="st1" width="9.3" height="37.3"/>
			<rect x="85.9" y="30.6" class="st1" width="9.3" height="37.3"/>
		</g>
	</g>
</g>
</svg>
